<?xml version="1.0" standalone="no"?>
<!DOCTYPE svg PUBLIC "-//W3C//DTD SVG 20010904//EN"
 "http://www.w3.org/TR/2001/REC-SVG-20010904/DTD/svg10.dtd">
<svg version="1.0" xmlns="http://www.w3.org/2000/svg"
 width="523.000000pt" height="523.000000pt" viewBox="0 0 523.000000 523.000000"
 preserveAspectRatio="xMidYMid meet">
<metadata>
Created by potrace 1.11, written by Peter Selinger 2001-2013
</metadata>
<g transform="translate(0.000000,523.000000) scale(0.100000,-0.100000)"
fill="#000000" stroke="none">
<path d="M1770 4526 c-35 -78 -85 -224 -95 -278 l-7 -35 64 -23 c364 -132 687
-364 917 -658 36 -45 68 -82 73 -82 4 0 30 10 56 21 96 43 110 49 201 79 52
17 97 28 101 23 12 -12 56 -154 80 -256 31 -131 40 -201 41 -327 1 -110 -6
-172 -37 -350 -9 -47 -75 -263 -90 -291 -19 -38 -8 -36 46 7 287 231 508 360
809 474 167 63 377 123 506 144 17 3 68 12 115 20 134 23 249 31 466 30 220 0
213 -2 131 50 -59 37 -251 96 -392 121 -16 2 -41 7 -55 10 -14 3 -39 8 -57 11
-29 5 -33 12 -52 72 -26 84 -53 129 -120 197 -139 141 -612 312 -1021 370 -84
11 -200 25 -260 30 -36 4 -70 8 -76 10 -7 2 17 -54 52 -123 35 -70 64 -130 64
-134 0 -7 -140 -52 -144 -46 -2 2 -26 49 -53 104 -216 437 -618 760 -1073 864
-52 12 -109 25 -127 29 -31 9 -31 8 -63 -63z"/>
<path d="M909 4236 c-2 -2 -38 -7 -79 -10 -41 -3 -91 -8 -110 -11 -68 -11
-215 -48 -221 -57 -18 -27 12 -320 47 -463 122 -486 416 -907 828 -1184 75
-51 79 -53 205 -119 200 -104 445 -178 696 -208 64 -7 304 -7 375 0 80 9 138
19 205 35 22 6 41 10 43 10 1 0 27 5 56 12 35 7 56 18 58 28 9 33 -2 235 -16
307 -3 12 -7 39 -10 60 -75 472 -395 969 -811 1256 -244 168 -564 294 -825
324 -25 3 -52 8 -60 11 -16 6 -375 14 -381 9z"/>
<path d="M1049 1978 c-19 -24 -39 -50 -46 -58 -31 -39 -855 -1096 -996 -1278
-7 -9 -6 -11 4 -8 8 3 41 7 74 10 285 27 566 147 754 322 35 32 174 196 309
364 134 168 263 322 286 344 83 77 183 133 301 167 l60 18 -45 1 c-25 1 -54 3
-65 5 -11 1 -42 5 -70 9 -139 17 -391 86 -516 140 -12 5 -26 -5 -50 -36z"/>
</g>
</svg>
